<?xml version="1.0" standalone="no"?><!DOCTYPE svg PUBLIC "-//W3C//DTD SVG 1.1//EN" "http://www.w3.org/Graphics/SVG/1.1/DTD/svg11.dtd"><svg t="1636465462865" class="icon" viewBox="0 0 1228 1024" version="1.1" xmlns="http://www.w3.org/2000/svg" p-id="5411" xmlns:xlink="http://www.w3.org/1999/xlink" width="239.84375" height="200"><defs><style type="text/css"></style></defs><path d="M563.839471 0.00096a163.199847 163.199847 0 0 1 117.43989 49.279954l68.895936 71.455933A108.767898 108.767898 0 0 0 828.479223 153.600816h344.863677C1232.222845 153.600816 1279.9988 199.456773 1279.9988 256.00072v665.599376c0 56.543947-47.743955 102.399904-106.6559 102.399904H106.6559C47.775955 1024 0 978.144043 0 921.600096V102.400864C0 45.856917 47.743955 0.00096 106.6559 0.00096H563.839471z" fill="#CCCCCC" p-id="5412"></path><path d="M639.9994 284.448693c-29.215973 0-52.89595 23.135978-52.89595 51.711952v181.02383h-185.119827c-29.215973 0-52.89595 23.135978-52.89595 51.711952 0 28.543973 23.679978 51.711952 52.89595 51.711951h185.119827v181.02383c0 28.543973 23.679978 51.711952 52.89595 51.711952s52.89595-23.167978 52.89595-51.711952v-181.02383h185.119827c29.215973 0 52.89595-23.167978 52.89595-51.711951 0-28.575973-23.679978-51.711952-52.89595-51.711952h-185.119827v-181.02383c0-28.575973-23.679978-51.711952-52.89595-51.711952z" fill="#666666" p-id="5413"></path></svg>